<mxfile host="Electron" agent="Mozilla/5.0 (Windows NT 10.0; Win64; x64) AppleWebKit/537.36 (KHTML, like Gecko) draw.io/24.7.8 Chrome/128.0.6613.36 Electron/32.0.1 Safari/537.36" version="24.7.8">
  <diagram name="Page-1" id="8-qI8iUNCv2tnIP4cM6L">
    <mxGraphModel dx="1503" dy="820" grid="1" gridSize="10" guides="1" tooltips="1" connect="1" arrows="1" fold="1" page="1" pageScale="1" pageWidth="850" pageHeight="1100" math="0" shadow="0">
      <root>
        <mxCell id="0" />
        <mxCell id="1" parent="0" />
        <mxCell id="v2ILFtmvY50MkUoZNbYE-10" value="" style="edgeStyle=orthogonalEdgeStyle;rounded=0;orthogonalLoop=1;jettySize=auto;html=1;" parent="1" source="v2ILFtmvY50MkUoZNbYE-2" target="v2ILFtmvY50MkUoZNbYE-4" edge="1">
          <mxGeometry relative="1" as="geometry" />
        </mxCell>
        <mxCell id="v2ILFtmvY50MkUoZNbYE-2" value="Begin" style="strokeWidth=2;html=1;shape=mxgraph.flowchart.start_1;whiteSpace=wrap;" parent="1" vertex="1">
          <mxGeometry x="40" y="40" width="100" height="60" as="geometry" />
        </mxCell>
        <mxCell id="v2ILFtmvY50MkUoZNbYE-3" value="End" style="strokeWidth=2;html=1;shape=mxgraph.flowchart.terminator;whiteSpace=wrap;" parent="1" vertex="1">
          <mxGeometry x="40" y="1300" width="100" height="60" as="geometry" />
        </mxCell>
        <mxCell id="v2ILFtmvY50MkUoZNbYE-9" value="" style="edgeStyle=orthogonalEdgeStyle;rounded=0;orthogonalLoop=1;jettySize=auto;html=1;" parent="1" source="v2ILFtmvY50MkUoZNbYE-4" target="v2ILFtmvY50MkUoZNbYE-8" edge="1">
          <mxGeometry relative="1" as="geometry" />
        </mxCell>
        <mxCell id="v2ILFtmvY50MkUoZNbYE-4" value="&lt;div&gt;InitializeGame&lt;/div&gt;" style="shape=parallelogram;html=1;strokeWidth=2;perimeter=parallelogramPerimeter;rounded=1;arcSize=12;size=0.23;whiteSpace=wrap;" parent="1" vertex="1">
          <mxGeometry x="10" y="130" width="160" height="60" as="geometry" />
        </mxCell>
        <mxCell id="v2ILFtmvY50MkUoZNbYE-13" value="" style="edgeStyle=orthogonalEdgeStyle;rounded=0;orthogonalLoop=1;jettySize=auto;html=1;" parent="1" source="v2ILFtmvY50MkUoZNbYE-8" edge="1">
          <mxGeometry relative="1" as="geometry">
            <mxPoint x="90" y="320" as="targetPoint" />
          </mxGeometry>
        </mxCell>
        <mxCell id="Gtuq3ewXMvMmGX5Lloo4-13" value="" style="edgeStyle=orthogonalEdgeStyle;rounded=0;orthogonalLoop=1;jettySize=auto;html=1;" edge="1" parent="1" source="v2ILFtmvY50MkUoZNbYE-8">
          <mxGeometry relative="1" as="geometry">
            <mxPoint x="90" y="320" as="targetPoint" />
          </mxGeometry>
        </mxCell>
        <mxCell id="v2ILFtmvY50MkUoZNbYE-8" value="&lt;div&gt;Display categories&lt;/div&gt;" style="shape=parallelogram;html=1;strokeWidth=2;perimeter=parallelogramPerimeter;rounded=1;arcSize=12;size=0.23;whiteSpace=wrap;" parent="1" vertex="1">
          <mxGeometry x="2.5" y="220" width="175" height="60" as="geometry" />
        </mxCell>
        <mxCell id="Gtuq3ewXMvMmGX5Lloo4-19" value="" style="edgeStyle=orthogonalEdgeStyle;rounded=0;orthogonalLoop=1;jettySize=auto;html=1;" edge="1" parent="1" source="v2ILFtmvY50MkUoZNbYE-16" target="Gtuq3ewXMvMmGX5Lloo4-3">
          <mxGeometry relative="1" as="geometry" />
        </mxCell>
        <mxCell id="v2ILFtmvY50MkUoZNbYE-16" value="Answering" style="whiteSpace=wrap;html=1;rounded=1;arcSize=14;strokeWidth=2;" parent="1" vertex="1">
          <mxGeometry x="15" y="520" width="150" height="60" as="geometry" />
        </mxCell>
        <mxCell id="Gtuq3ewXMvMmGX5Lloo4-50" value="" style="edgeStyle=orthogonalEdgeStyle;rounded=0;orthogonalLoop=1;jettySize=auto;html=1;" edge="1" parent="1" source="v2ILFtmvY50MkUoZNbYE-25" target="v2ILFtmvY50MkUoZNbYE-30">
          <mxGeometry relative="1" as="geometry" />
        </mxCell>
        <mxCell id="v2ILFtmvY50MkUoZNbYE-25" value="UpdateScore&lt;div&gt;(Add Points)&lt;/div&gt;" style="shape=parallelogram;html=1;strokeWidth=2;perimeter=parallelogramPerimeter;rounded=1;arcSize=12;size=0.23;whiteSpace=wrap;" parent="1" vertex="1">
          <mxGeometry x="-5" y="870" width="190" height="70" as="geometry" />
        </mxCell>
        <mxCell id="Gtuq3ewXMvMmGX5Lloo4-26" value="" style="edgeStyle=orthogonalEdgeStyle;rounded=0;orthogonalLoop=1;jettySize=auto;html=1;" edge="1" parent="1" source="v2ILFtmvY50MkUoZNbYE-30" target="Gtuq3ewXMvMmGX5Lloo4-25">
          <mxGeometry relative="1" as="geometry" />
        </mxCell>
        <mxCell id="v2ILFtmvY50MkUoZNbYE-30" value="NextTurn" style="shape=parallelogram;html=1;strokeWidth=2;perimeter=parallelogramPerimeter;rounded=1;arcSize=12;size=0.23;whiteSpace=wrap;" parent="1" vertex="1">
          <mxGeometry x="-5" y="980" width="190" height="60" as="geometry" />
        </mxCell>
        <mxCell id="Gtuq3ewXMvMmGX5Lloo4-6" value="" style="edgeStyle=orthogonalEdgeStyle;rounded=0;orthogonalLoop=1;jettySize=auto;html=1;" edge="1" parent="1" source="Gtuq3ewXMvMmGX5Lloo4-3" target="Gtuq3ewXMvMmGX5Lloo4-5">
          <mxGeometry relative="1" as="geometry" />
        </mxCell>
        <mxCell id="Gtuq3ewXMvMmGX5Lloo4-7" style="edgeStyle=orthogonalEdgeStyle;rounded=0;orthogonalLoop=1;jettySize=auto;html=1;exitX=0.5;exitY=1;exitDx=0;exitDy=0;exitPerimeter=0;" edge="1" parent="1" source="Gtuq3ewXMvMmGX5Lloo4-3">
          <mxGeometry relative="1" as="geometry">
            <mxPoint x="90" y="770" as="targetPoint" />
          </mxGeometry>
        </mxCell>
        <mxCell id="Gtuq3ewXMvMmGX5Lloo4-12" value="" style="edgeStyle=orthogonalEdgeStyle;rounded=0;orthogonalLoop=1;jettySize=auto;html=1;" edge="1" parent="1" source="Gtuq3ewXMvMmGX5Lloo4-3" target="Gtuq3ewXMvMmGX5Lloo4-11">
          <mxGeometry relative="1" as="geometry" />
        </mxCell>
        <mxCell id="Gtuq3ewXMvMmGX5Lloo4-3" value="CheckAnswer" style="strokeWidth=2;html=1;shape=mxgraph.flowchart.decision;whiteSpace=wrap;" vertex="1" parent="1">
          <mxGeometry x="30" y="620" width="120" height="100" as="geometry" />
        </mxCell>
        <mxCell id="Gtuq3ewXMvMmGX5Lloo4-31" value="" style="edgeStyle=orthogonalEdgeStyle;rounded=0;orthogonalLoop=1;jettySize=auto;html=1;" edge="1" parent="1" source="Gtuq3ewXMvMmGX5Lloo4-5" target="Gtuq3ewXMvMmGX5Lloo4-30">
          <mxGeometry relative="1" as="geometry" />
        </mxCell>
        <mxCell id="Gtuq3ewXMvMmGX5Lloo4-53" style="edgeStyle=orthogonalEdgeStyle;rounded=0;orthogonalLoop=1;jettySize=auto;html=1;exitX=0.325;exitY=-0.05;exitDx=0;exitDy=0;exitPerimeter=0;" edge="1" parent="1">
          <mxGeometry relative="1" as="geometry">
            <mxPoint x="299" y="637" as="sourcePoint" />
            <mxPoint x="90" y="600" as="targetPoint" />
            <Array as="points">
              <mxPoint x="300" y="637" />
              <mxPoint x="300" y="600" />
              <mxPoint x="110" y="600" />
            </Array>
          </mxGeometry>
        </mxCell>
        <mxCell id="Gtuq3ewXMvMmGX5Lloo4-5" value="IncorrectAnswer" style="whiteSpace=wrap;html=1;strokeWidth=2;" vertex="1" parent="1">
          <mxGeometry x="240" y="640" width="120" height="60" as="geometry" />
        </mxCell>
        <mxCell id="Gtuq3ewXMvMmGX5Lloo4-33" value="" style="edgeStyle=orthogonalEdgeStyle;rounded=0;orthogonalLoop=1;jettySize=auto;html=1;" edge="1" parent="1" source="Gtuq3ewXMvMmGX5Lloo4-11" target="v2ILFtmvY50MkUoZNbYE-25">
          <mxGeometry relative="1" as="geometry" />
        </mxCell>
        <mxCell id="Gtuq3ewXMvMmGX5Lloo4-11" value="CorrectAnswer" style="whiteSpace=wrap;html=1;strokeWidth=2;" vertex="1" parent="1">
          <mxGeometry x="30" y="760" width="120" height="60" as="geometry" />
        </mxCell>
        <mxCell id="Gtuq3ewXMvMmGX5Lloo4-17" value="" style="edgeStyle=orthogonalEdgeStyle;rounded=0;orthogonalLoop=1;jettySize=auto;html=1;" edge="1" parent="1" source="Gtuq3ewXMvMmGX5Lloo4-14" target="Gtuq3ewXMvMmGX5Lloo4-16">
          <mxGeometry relative="1" as="geometry" />
        </mxCell>
        <mxCell id="Gtuq3ewXMvMmGX5Lloo4-14" value="QuestionSelection" style="rounded=1;whiteSpace=wrap;html=1;" vertex="1" parent="1">
          <mxGeometry x="30" y="320" width="120" height="60" as="geometry" />
        </mxCell>
        <mxCell id="Gtuq3ewXMvMmGX5Lloo4-18" value="" style="edgeStyle=orthogonalEdgeStyle;rounded=0;orthogonalLoop=1;jettySize=auto;html=1;" edge="1" parent="1" source="Gtuq3ewXMvMmGX5Lloo4-16" target="v2ILFtmvY50MkUoZNbYE-16">
          <mxGeometry relative="1" as="geometry" />
        </mxCell>
        <mxCell id="Gtuq3ewXMvMmGX5Lloo4-16" value="DisplayQuestion" style="shape=parallelogram;html=1;strokeWidth=2;perimeter=parallelogramPerimeter;whiteSpace=wrap;rounded=1;arcSize=12;size=0.23;" vertex="1" parent="1">
          <mxGeometry x="15" y="420" width="150" height="60" as="geometry" />
        </mxCell>
        <mxCell id="Gtuq3ewXMvMmGX5Lloo4-28" value="" style="edgeStyle=orthogonalEdgeStyle;rounded=0;orthogonalLoop=1;jettySize=auto;html=1;" edge="1" parent="1" source="Gtuq3ewXMvMmGX5Lloo4-25" target="Gtuq3ewXMvMmGX5Lloo4-27">
          <mxGeometry relative="1" as="geometry" />
        </mxCell>
        <mxCell id="Gtuq3ewXMvMmGX5Lloo4-25" value="EndGame" style="whiteSpace=wrap;html=1;strokeWidth=2;rounded=1;arcSize=12;" vertex="1" parent="1">
          <mxGeometry x="30" y="1090" width="120" height="60" as="geometry" />
        </mxCell>
        <mxCell id="Gtuq3ewXMvMmGX5Lloo4-27" value="AnnounceWinner" style="whiteSpace=wrap;html=1;strokeWidth=2;rounded=1;arcSize=12;" vertex="1" parent="1">
          <mxGeometry x="30" y="1200" width="120" height="60" as="geometry" />
        </mxCell>
        <mxCell id="Gtuq3ewXMvMmGX5Lloo4-51" style="edgeStyle=orthogonalEdgeStyle;rounded=0;orthogonalLoop=1;jettySize=auto;html=1;entryX=1;entryY=0.75;entryDx=0;entryDy=0;" edge="1" parent="1" source="Gtuq3ewXMvMmGX5Lloo4-30" target="v2ILFtmvY50MkUoZNbYE-30">
          <mxGeometry relative="1" as="geometry">
            <Array as="points">
              <mxPoint x="300" y="1020" />
            </Array>
          </mxGeometry>
        </mxCell>
        <mxCell id="Gtuq3ewXMvMmGX5Lloo4-30" value="UpdateScore&lt;div&gt;(Substract Points)&lt;/div&gt;" style="whiteSpace=wrap;html=1;strokeWidth=2;" vertex="1" parent="1">
          <mxGeometry x="240" y="820" width="120" height="60" as="geometry" />
        </mxCell>
        <mxCell id="Gtuq3ewXMvMmGX5Lloo4-54" style="edgeStyle=orthogonalEdgeStyle;rounded=0;orthogonalLoop=1;jettySize=auto;html=1;exitX=0.5;exitY=1;exitDx=0;exitDy=0;entryX=0.5;entryY=0;entryDx=0;entryDy=0;entryPerimeter=0;" edge="1" parent="1" source="Gtuq3ewXMvMmGX5Lloo4-27" target="v2ILFtmvY50MkUoZNbYE-3">
          <mxGeometry relative="1" as="geometry" />
        </mxCell>
      </root>
    </mxGraphModel>
  </diagram>
</mxfile>
